<?xml version="1.0" encoding="UTF-8" standalone="no"?>
<svg
   xmlns:dc="http://purl.org/dc/elements/1.1/"
   xmlns:cc="http://creativecommons.org/ns#"
   xmlns:rdf="http://www.w3.org/1999/02/22-rdf-syntax-ns#"
   xmlns:svg="http://www.w3.org/2000/svg"
   xmlns="http://www.w3.org/2000/svg"
   xmlns:sodipodi="http://sodipodi.sourceforge.net/DTD/sodipodi-0.dtd"
   xmlns:inkscape="http://www.inkscape.org/namespaces/inkscape"
   sodipodi:docname="logo.svg"
   inkscape:version="1.0 (4035a4fb49, 2020-05-01)"
   id="svg8"
   version="1.1"
   viewBox="0 0 10 10"
   height="10mm"
   width="10mm">
  <defs
     id="defs2" />
  <sodipodi:namedview
     inkscape:window-maximized="1"
     inkscape:window-y="416"
     inkscape:window-x="2992"
     inkscape:window-height="1017"
     inkscape:window-width="1920"
     fit-margin-bottom="0"
     fit-margin-right="0"
     fit-margin-left="0"
     fit-margin-top="0"
     inkscape:pagecheckerboard="true"
     showgrid="false"
     inkscape:document-rotation="0"
     inkscape:current-layer="layer1"
     inkscape:document-units="mm"
     inkscape:cy="36.545643"
     inkscape:cx="34.141216"
     inkscape:zoom="22.627417"
     inkscape:pageshadow="2"
     inkscape:pageopacity="0"
     borderopacity="1.0"
     bordercolor="#666666"
     pagecolor="#ffffff"
     id="base" />
  <metadata
     id="metadata5">
    <rdf:RDF>
      <cc:Work
         rdf:about="">
        <dc:format>image/svg+xml</dc:format>
        <dc:type
           rdf:resource="http://purl.org/dc/dcmitype/StillImage" />
        <dc:title></dc:title>
      </cc:Work>
    </rdf:RDF>
  </metadata>
  <g
     transform="translate(-35.18958,-77.611111)"
     id="layer1"
     inkscape:groupmode="layer"
     inkscape:label="Layer 1">
    <path
       id="path991"
       d="m 40.447546,87.616647 c -0.04645,-0.0012 -0.246257,-0.07541 -0.444016,-0.1648 -0.197758,-0.08939 -0.529659,-0.251333 -0.737556,-0.359885 -0.207896,-0.108553 -0.571953,-0.32117 -0.809014,-0.472486 -0.237062,-0.151313 -0.648722,-0.444514 -0.914802,-0.651554 -0.26608,-0.207041 -0.628004,-0.533768 -0.804277,-0.726057 -0.176274,-0.192291 -0.424155,-0.509477 -0.550847,-0.704858 -0.126691,-0.195382 -0.283884,-0.528571 -0.349318,-0.74042 -0.111729,-0.361739 -0.118969,-0.561662 -0.118969,-3.285327 v -2.900149 h 4.674309 4.67431 l -10e-4,2.771625 c -8.5e-4,2.175806 -0.01952,2.858839 -0.08701,3.17732 -0.04728,0.223132 -0.16837,0.560223 -0.269081,0.749089 -0.100712,0.188866 -0.337972,0.522078 -0.527243,0.740472 -0.189271,0.218394 -0.550871,0.572521 -0.803556,0.786951 -0.252685,0.214429 -0.692703,0.543496 -0.97782,0.731261 -0.285116,0.187762 -0.822419,0.501073 -1.194006,0.696244 -0.371586,0.195169 -0.713615,0.353827 -0.760065,0.352574 z m -0.03801,-0.717453 c 0.02554,3.4e-4 0.239961,-0.09685 0.476486,-0.21596 0.236526,-0.11911 0.642044,-0.348052 0.901153,-0.508755 0.25911,-0.160706 0.624484,-0.410292 0.811944,-0.55464 0.187462,-0.144346 0.484848,-0.392016 0.660861,-0.550379 l 0.320024,-0.287932 -0.379951,-0.176235 c -0.219149,-0.101649 -0.481399,-0.176446 -0.619657,-0.176734 -0.135354,-3.4e-4 -0.383196,0.06767 -0.569307,0.156098 -0.181279,0.08613 -0.391088,0.156865 -0.466241,0.157186 -0.07515,3.4e-4 -0.304373,-0.07072 -0.50938,-0.157878 -0.205006,-0.08716 -0.480606,-0.158843 -0.612446,-0.159307 -0.131839,-5e-4 -0.348832,0.05511 -0.482203,0.123497 -0.133374,0.06839 -0.337998,0.142256 -0.454724,0.164154 -0.160777,0.03016 -0.305385,1.7e-4 -0.596482,-0.123497 -0.211342,-0.08982 -0.493839,-0.163914 -0.627774,-0.164654 -0.133934,-6.49e-4 -0.322705,0.04393 -0.419489,0.09926 -0.09678,0.05533 -0.280375,0.135501 -0.407979,0.178152 l -0.232008,0.07755 0.381826,0.347112 c 0.210003,0.19091 0.678463,0.544334 1.041023,0.785385 0.362557,0.241051 0.901901,0.561732 1.198539,0.712622 0.296639,0.15089 0.560242,0.27462 0.585785,0.274954 z M 38.11583,83.663742 c 0.01786,0 0.274043,-0.242704 0.569307,-0.539343 l 0.536845,-0.539343 H 38.11583 37.009681 l 0.536844,0.539343 c 0.295263,0.296639 0.551452,0.539343 0.569305,0.539343 z m 2.337154,-0.05993 c 0.01793,0 0.26064,-0.229222 0.539344,-0.50938 l 0.506732,-0.509379 h -1.046076 -1.046078 l 0.506735,0.509379 c 0.278702,0.280158 0.521407,0.50938 0.539343,0.50938 z m 2.277227,0 c 0.01794,0 0.260641,-0.229222 0.539344,-0.50938 l 0.506734,-0.509379 h -1.046078 -1.046076 l 0.506733,0.509379 c 0.278703,0.280158 0.521408,0.50938 0.539343,0.50938 z m -3.445804,-1.138614 c 0.0013,0 0.244078,-0.242705 0.539343,-0.539343 l 0.536845,-0.539343 h -1.076186 -1.076188 l 0.536844,0.539343 c 0.295265,0.296638 0.537969,0.539343 0.539344,0.539343 z m 2.307191,-0.05993 c 0.01794,0 0.26064,-0.229221 0.539344,-0.50938 l 0.506733,-0.509379 H 41.591598 40.54552 l 0.506735,0.509379 c 0.278703,0.280159 0.521407,0.50938 0.539343,0.50938 z m -1.168578,-1.19854 c 0.0013,0 0.244079,-0.242705 0.539344,-0.539344 l 0.536844,-0.539343 H 40.423017 39.34683 l 0.536844,0.539343 c 0.295265,0.296639 0.53797,0.539344 0.539343,0.539344 z m -0.02996,-1.797812 h 4.015111 V 78.839609 78.270303 H 40.39306 36.377948 v 0.569306 0.569307 z"
       style="fill:#ffffff;stroke-width:0.0599269" />
  </g>
</svg>
